<!DOCTYPE svg PUBLIC "-//W3C//DTD SVG 1.1//EN" "http://www.w3.org/Graphics/SVG/1.1/DTD/svg11.dtd">
<!-- Uploaded to: SVG Repo, www.svgrepo.com, Transformed by: SVG Repo Mixer Tools -->
<svg fill="#431A10" height="800px" width="800px" version="1.1" id="Layer_1" xmlns="http://www.w3.org/2000/svg" xmlns:xlink="http://www.w3.org/1999/xlink" viewBox="0 0 512 512" xml:space="preserve">
<g id="SVGRepo_bgCarrier" stroke-width="0"/>
<g id="SVGRepo_tracerCarrier" stroke-linecap="round" stroke-linejoin="round"/>
<g id="SVGRepo_iconCarrier"> <g> <g> <path d="M435.462,105.294H0v265.265h240.245c-18.561-54.206-66.335-90.882-125.356-90.882H63.517v-85.839h366.615v63.353 c23.906,7.768,45.562,21.062,63.517,39.261v-6.477V163.481C493.649,131.396,467.547,105.294,435.462,105.294z"/> </g> </g> <g> <g> <path d="M93.995,224.316v24.883h20.895h264.099c6.988,0,13.884,0.427,20.666,1.257v-26.14H93.995z"/> </g> </g> <g> <g> <path d="M378.988,279.677h-85.723h-83.152c8.248,6.019,15.964,12.881,23.054,20.547c26.339,28.478,42.147,65.839,45.312,106.482 H512C505.296,333.297,450.358,279.677,378.988,279.677z"/> </g> </g> </g>
</svg>